Coordinates
version=1
nRows=16
nColumns=40
inDegrees=yes

Units are S.I. units (second, meters, Newtons, ...)
Angles are in degrees.

endheader
time	pelvis_tilt	pelvis_list	pelvis_rotation	pelvis_tx	pelvis_ty	pelvis_tz	hip_flexion_r	hip_adduction_r	hip_rotation_r	knee_angle_r	knee_angle_r_beta	ankle_angle_r	subtalar_angle_r	mtp_angle_r	hip_flexion_l	hip_adduction_l	hip_rotation_l	knee_angle_l	knee_angle_l_beta	ankle_angle_l	subtalar_angle_l	mtp_angle_l	lumbar_extension	lumbar_bending	lumbar_rotation	arm_flex_r	arm_add_r	arm_rot_r	elbow_flex_r	pro_sup_r	wrist_flex_r	wrist_dev_r	arm_flex_l	arm_add_l	arm_rot_l	elbow_flex_l	pro_sup_l	wrist_flex_l	wrist_dev_l
      0.82000000	     -0.51104083	      1.39637799	      6.35040340	     -0.87779266	      0.95920693	      1.48263953	      2.21175027	     -0.59075466	    -22.33334494	    -14.67869871	     -0.25619162	      6.49819566	     -3.07793608	     -9.22629598	     18.42462192	      6.32853781	     16.46913575	    -36.91548211	     -0.64429671	      6.52675191	     14.87541515	      9.89108452	     -4.74475920	     -1.37438177	      2.72213901	      4.09266545	    -12.84901291	    -15.74880602	     19.23685159	     89.95437384	      0.00000000	      0.00000000	     -3.68756065	      8.33490054	      1.45380055	     21.73145480	     89.95437384	      0.00000000	      0.00000000
      0.83000000	     -0.08521702	      1.62611757	      6.37082508	     -0.87160747	      0.95966288	      1.48299298	      1.11260365	     -0.69157655	    -22.65608161	    -14.33852213	     -0.25025442	      6.65589598	     -2.85126500	     -9.26899174	     18.14881892	      5.82958309	     16.77969597	    -34.78520204	     -0.60711631	      6.25891864	     14.43518239	      9.80900047	     -5.23790487	     -1.60363742	      2.76366054	      4.60971703	    -12.93247933	    -15.18642483	     19.31027296	     89.95437384	      0.00000000	      0.00000000	     -3.66264436	      8.16248452	      1.44693945	     22.33130968	     89.95437384	      0.00000000	      0.00000000
      0.84000000	     -0.30865218	      1.37454120	      6.42298841	     -0.86604397	      0.95876265	      1.48342466	      0.97339385	     -0.35474302	    -22.86906330	    -14.28449000	     -0.24931138	      6.92907704	     -2.83029911	     -9.24210362	     18.93419819	      5.82518006	     16.81021975	    -33.15805608	     -0.57871725	      6.22708493	     13.98705729	      9.72297509	     -4.95936077	     -1.35155249	      2.88818012	      4.97904828	    -13.03964808	    -14.99827275	     19.50005446	     89.95437384	      0.00000000	      0.00000000	     -3.59603715	      7.90744509	      1.32917300	     22.71383394	     89.95437384	      0.00000000	      0.00000000
      0.85000000	     -0.08086737	      1.69837041	      6.47224499	     -0.86003253	      0.95891771	      1.48350141	      0.10687641	     -0.57919625	    -23.02178582	    -13.96269670	     -0.24369503	      7.22235799	     -2.65416413	     -9.29110965	     18.76850026	      5.10839446	     16.80474137	    -30.78771404	     -0.53734698	      5.59991602	     13.06890396	      9.64656341	     -5.26148053	     -1.68944660	      2.85757862	      5.51265469	    -13.09672962	    -14.34987346	     19.52310093	     89.95437384	      0.00000000	      0.00000000	     -3.47710956	      7.81987945	      1.14352291	     22.95798924	     89.95437384	      0.00000000	      0.00000000
      0.86000000	     -0.23263687	      1.43286620	      6.51449001	     -0.85420199	      0.95803170	      1.48381501	     -0.11990097	     -0.22490938	    -23.22217005	    -13.94189464	     -0.24333197	      7.48228978	     -2.65327353	     -9.28865246	     19.41710763	      5.13699716	     16.84354703	    -29.14439389	     -0.50866563	      5.59225950	     12.57440484	      9.56171986	     -5.05117762	     -1.42189582	      2.95310764	      5.86175851	    -13.16556784	    -14.16707622	     19.74303645	     89.95437384	      0.00000000	      0.00000000	     -3.42384861	      7.67340964	      1.11039042	     23.10705914	     89.95437384	      0.00000000	      0.00000000
      0.87000000	     -0.31890709	      1.40769243	      6.49802317	     -0.84852391	      0.95743589	      1.48410806	     -0.47014241	     -0.10970419	    -23.17808286	    -13.82046979	     -0.24121270	      7.74213474	     -2.55067770	     -9.29538272	     19.72819618	      4.80974183	     16.48502147	    -27.01209717	     -0.47145003	      5.13057236	     11.43336453	      9.49564069	     -4.98311599	     -1.42820307	      2.99609043	      6.36277480	    -13.19267847	    -13.83169264	     19.85069369	     89.95437384	      0.00000000	      0.00000000	     -3.30745868	      7.61472612	      1.21970485	     23.11487044	     89.95437384	      0.00000000	      0.00000000
      0.88000000	     -0.18402487	      1.62449531	      6.46679620	     -0.84253831	      0.95723910	      1.48415110	     -1.12785732	     -0.25913840	    -23.19014328	    -13.68089337	     -0.23877663	      7.98951513	     -2.48729986	     -9.33518442	     19.61871392	      4.26259729	     16.26651815	    -24.69677738	     -0.43104008	      4.48254933	      9.97961599	      9.43940161	     -5.19387490	     -1.67097580	      3.00544939	      6.84480870	    -13.19698587	    -13.33487841	     20.00490443	     89.95437384	      0.00000000	      0.00000000	     -3.07705494	      7.52399947	      1.61314229	     22.84171691	     89.95437384	      0.00000000	      0.00000000
      0.89000000	      0.45789446	      2.16205565	      6.28059304	     -0.83575911	      0.95790733	      1.48419439	     -2.49076160	     -0.74518328	    -23.55895302	    -13.40264199	     -0.23392023	      8.25487253	     -2.07992940	     -9.53079405	     18.76765920	      3.54714847	     16.79684408	    -22.29813842	     -0.38917593	      3.79766118	      8.72792799	      9.17564338	     -5.94358853	     -2.22892875	      3.01141491	      7.39285414	    -13.16175847	    -12.61438614	     20.11305036	     89.95437384	      0.00000000	      0.00000000	     -2.93645155	      7.42775248	      2.63327552	     22.63535630	     89.95437384	      0.00000000	      0.00000000
      0.90000000	      0.37506873	      2.10002244	      6.20411461	     -0.82981307	      0.95706119	      1.48426122	     -2.83171985	     -0.63533422	    -23.57891278	    -13.32799263	     -0.23261735	      8.47893591	     -1.79738277	     -9.63476093	     19.07089549	      3.35887429	     16.71804751	    -20.35041814	     -0.35518180	      3.56225609	      7.57224548	      9.04374763	     -5.85473098	     -2.18800005	      3.02746119	      7.84154548	    -13.14347395	    -12.25151233	     20.31188383	     89.95437384	      0.00000000	      0.00000000	     -2.80087033	      7.38062343	      2.82918656	     22.24887584	     89.95437384	      0.00000000	      0.00000000
      0.91000000	      0.24212787	      2.01757950	      6.15779804	     -0.82376029	      0.95608652	      1.48440408	     -3.11695516	     -0.48407387	    -23.71967044	    -13.26644302	     -0.23154311	      8.80135425	     -1.81821853	     -9.67991223	     19.61291062	      3.27337246	     16.72641168	    -18.98266204	     -0.33130995	      3.42287038	      6.85557302	      8.96033379	     -5.69166986	     -2.16255916	      3.08218591	      8.23116566	    -13.09194081	    -12.04209894	     20.44501936	     89.95437384	      0.00000000	      0.00000000	     -2.70565835	      7.42511753	      2.89248637	     21.98445599	     89.95437384	      0.00000000	      0.00000000
      0.92000000	      0.58821324	      2.55347337	      5.88026583	     -0.81736394	      0.95613234	      1.48433493	     -3.99032312	     -1.05244901	    -23.72707171	    -13.26467363	     -0.23151223	      9.10380007	     -1.54771023	     -9.89939007	     19.03619755	      2.57637294	     17.09370369	    -16.62540773	     -0.29016810	      2.12600965	      4.63958113	      8.65600243	     -6.17332879	     -2.76695997	      3.13906645	      8.75016344	    -12.98764286	    -11.47863161	     20.63541575	     89.95437384	      0.00000000	      0.00000000	     -2.48104691	      7.38182249	      3.79387500	     21.45368631	     89.95437384	      0.00000000	      0.00000000
      0.93000000	      0.45348154	      2.46363724	      5.74664241	     -0.81123222	      0.95510946	      1.48448457	     -4.22132803	     -0.93933173	    -23.69287324	    -13.31182561	     -0.23233519	      9.35884231	     -1.31957306	    -10.00972579	     19.44434166	      2.51967989	     16.98171117	    -15.10732697	     -0.26367260	      1.74705053	      3.47022956	      8.49873135	     -6.00334273	     -2.74487526	      3.21730386	      9.15961981	    -12.89956753	    -11.22400205	     20.76225586	     89.95437384	      0.00000000	      0.00000000	     -2.38790546	      7.41768967	      3.87003418	     21.07338532	     89.95437384	      0.00000000	      0.00000000
      0.94000000	      0.72586442	      2.72492306	      5.42661299	     -0.80442001	      0.95466356	      1.48453525	     -4.96111264	     -1.28140134	    -24.02932596	    -13.38063553	     -0.23353615	      9.37589294	     -0.62373748	    -12.83363978	     19.22295678	      2.26390423	     17.86160773	    -13.41863309	     -0.23419933	     -1.08521991	      2.04799691	     -1.20214039	     -6.28596377	     -3.08109470	      3.32717351	      9.50424723	    -12.82076561	    -10.55068924	     21.09605827	     89.95437384	      0.00000000	      0.00000000	     -2.31546677	      7.42974463	      4.55211355	     20.66869454	     89.95437384	      0.00000000	      0.00000000
      0.95000000	      0.61047653	      2.75540443	      5.29377560	     -0.79831880	      0.95362742	      1.48443681	     -5.23661216	     -1.29711805	    -23.91973722	    -13.40986475	     -0.23404629	      9.63329661	     -0.69369761	    -12.82889078	     19.61716671	      2.10842576	     17.79694883	    -12.19658386	     -0.21287055	     -1.62933416	      1.05518098	     -1.10897566	     -6.18445623	     -3.20757584	      3.35220068	      9.91469662	    -12.65969668	    -10.41508900	     21.23052355	     89.95437384	      0.00000000	      0.00000000	     -2.18230463	      7.51546038	      4.59941763	     20.24092729	     89.95437384	      0.00000000	      0.00000000
      0.96000000	      0.74388661	      2.94832451	      4.99052349	     -0.79168564	      0.95301194	      1.48448039	     -5.80442370	     -1.51637764	    -23.84938619	    -13.47487193	     -0.23518088	      9.92873982	     -0.54597344	    -12.87435244	     19.64352734	      1.94616087	     18.60890089	    -11.04839872	     -0.19283093	     -2.44952335	     -0.60873057	     -1.09426916	     -6.33700290	     -3.50919267	      3.48248692	     10.26918964	    -12.49253662	    -10.12107546	     21.42228846	     89.95437384	      0.00000000	      0.00000000	     -2.15286706	      7.59498502	      5.03005654	     19.99141770	     89.95437384	      0.00000000	      0.00000000
      0.97000000	      0.57145443	      2.86147461	      4.83813796	     -0.78542183	      0.95181893	      1.48435145	     -5.95294153	     -1.45683425	    -23.81858451	    -13.62834724	     -0.23785953	     10.17979937	     -0.53634307	    -12.88157629	     20.15310584	      1.95675534	     18.53720738	    -10.17915358	     -0.17765974	     -3.04393029	     -1.29070185	     -1.00356812	     -6.14010091	     -3.51074339	      3.54048784	     10.56682001	    -12.34247375	     -9.96817094	     21.65391628	     89.95437384	      0.00000000	      0.00000000	     -2.11245946	      7.68289744	      5.06083561	     19.71827490	     89.95437384	      0.00000000	      0.00000000
